<svg width="115" height="82" viewBox="0 0 115 82" fill="none" xmlns="http://www.w3.org/2000/svg">
<path d="M14.918 21.3164C14.7852 23.1523 14.1055 24.5977 12.8789 25.6523C11.6602 26.707 10.0508 27.2344 8.05078 27.2344C5.86328 27.2344 4.14062 26.5 2.88281 25.0312C1.63281 23.5547 1.00781 21.5312 1.00781 18.9609V17.918C1.00781 16.2773 1.29688 14.832 1.875 13.582C2.45312 12.332 3.27734 11.375 4.34766 10.7109C5.42578 10.0391 6.67578 9.70312 8.09766 9.70312C10.0664 9.70312 11.6523 10.2305 12.8555 11.2852C14.0586 12.3398 14.7539 13.8203 14.9414 15.7266H11.4258C11.3398 14.625 11.0312 13.8281 10.5 13.3359C9.97656 12.8359 9.17578 12.5859 8.09766 12.5859C6.92578 12.5859 6.04688 13.0078 5.46094 13.8516C4.88281 14.6875 4.58594 15.9883 4.57031 17.7539V19.043C4.57031 20.8867 4.84766 22.2344 5.40234 23.0859C5.96484 23.9375 6.84766 24.3633 8.05078 24.3633C9.13672 24.3633 9.94531 24.1172 10.4766 23.625C11.0156 23.125 11.3242 22.3555 11.4023 21.3164H14.918ZM21.6286 15.7031C22.527 14.625 23.6559 14.0859 25.0153 14.0859C27.7653 14.0859 29.1598 15.6836 29.1989 18.8789V27H25.8122V18.9727C25.8122 18.2461 25.6559 17.7109 25.3434 17.3672C25.0309 17.0156 24.5114 16.8398 23.7848 16.8398C22.7927 16.8398 22.0739 17.2227 21.6286 17.9883V27H18.2419V9H21.6286V15.7031ZM40.1986 17.4961C39.7377 17.4336 39.3314 17.4023 38.9798 17.4023C37.6986 17.4023 36.8587 17.8359 36.4603 18.7031V27H33.0736V14.3203H36.2728L36.3666 15.832C37.0462 14.668 37.9877 14.0859 39.1908 14.0859C39.5658 14.0859 39.9173 14.1367 40.2455 14.2383L40.1986 17.4961ZM46.7334 27H43.335V14.3203H46.7334V27ZM43.1358 11.0391C43.1358 10.5312 43.3037 10.1133 43.6397 9.78516C43.9834 9.45703 44.4483 9.29297 45.0342 9.29297C45.6123 9.29297 46.0733 9.45703 46.417 9.78516C46.7608 10.1133 46.9327 10.5312 46.9327 11.0391C46.9327 11.5547 46.7569 11.9766 46.4053 12.3047C46.0616 12.6328 45.6045 12.7969 45.0342 12.7969C44.4639 12.7969 44.003 12.6328 43.6514 12.3047C43.3077 11.9766 43.1358 11.5547 43.1358 11.0391ZM57.7214 23.4961C57.7214 23.082 57.5144 22.7578 57.1003 22.5234C56.6941 22.2812 56.0378 22.0664 55.1316 21.8789C52.1159 21.2461 50.6081 19.9648 50.6081 18.0352C50.6081 16.9102 51.073 15.9727 52.0027 15.2227C52.9402 14.4648 54.1628 14.0859 55.6706 14.0859C57.28 14.0859 58.5652 14.4648 59.5261 15.2227C60.4948 15.9805 60.9792 16.9648 60.9792 18.1758H57.5925C57.5925 17.6914 57.4362 17.293 57.1237 16.9805C56.8112 16.6602 56.323 16.5 55.6589 16.5C55.0886 16.5 54.6472 16.6289 54.3347 16.8867C54.0222 17.1445 53.8659 17.4727 53.8659 17.8711C53.8659 18.2461 54.0417 18.5508 54.3933 18.7852C54.7527 19.0117 55.3542 19.2109 56.198 19.3828C57.0417 19.5469 57.7527 19.7344 58.3308 19.9453C60.1198 20.6016 61.0144 21.7383 61.0144 23.3555C61.0144 24.5117 60.5183 25.4492 59.5261 26.168C58.5339 26.8789 57.2527 27.2344 55.6823 27.2344C54.6198 27.2344 53.6745 27.0469 52.8464 26.6719C52.0261 26.2891 51.3816 25.7695 50.9128 25.1133C50.4441 24.4492 50.2097 23.7344 50.2097 22.9688H53.4206C53.4519 23.5703 53.6745 24.0312 54.0886 24.3516C54.5027 24.6719 55.0573 24.832 55.7527 24.832C56.4011 24.832 56.8894 24.7109 57.2175 24.4688C57.5534 24.2188 57.7214 23.8945 57.7214 23.4961ZM68.5805 11.2031V14.3203H70.7484V16.8047H68.5805V23.1328C68.5805 23.6016 68.6703 23.9375 68.85 24.1406C69.0297 24.3438 69.3734 24.4453 69.8812 24.4453C70.2562 24.4453 70.5883 24.418 70.8773 24.3633V26.9297C70.2133 27.1328 69.5297 27.2344 68.8266 27.2344C66.4516 27.2344 65.2406 26.0352 65.1937 23.6367V16.8047H63.3422V14.3203H65.1937V11.2031H68.5805ZM77.5294 27H74.1309V14.3203H77.5294V27ZM73.9317 11.0391C73.9317 10.5312 74.0997 10.1133 74.4356 9.78516C74.7794 9.45703 75.2442 9.29297 75.8302 9.29297C76.4083 9.29297 76.8692 9.45703 77.213 9.78516C77.5567 10.1133 77.7286 10.5312 77.7286 11.0391C77.7286 11.5547 77.5528 11.9766 77.2012 12.3047C76.8575 12.6328 76.4005 12.7969 75.8302 12.7969C75.2598 12.7969 74.7989 12.6328 74.4473 12.3047C74.1036 11.9766 73.9317 11.5547 73.9317 11.0391ZM88.9978 27C88.8416 26.6953 88.7283 26.3164 88.658 25.8633C87.8377 26.7773 86.7712 27.2344 85.4587 27.2344C84.2166 27.2344 83.1853 26.875 82.365 26.1562C81.5525 25.4375 81.1462 24.5312 81.1462 23.4375C81.1462 22.0938 81.6423 21.0625 82.6345 20.3438C83.6345 19.625 85.0759 19.2617 86.9587 19.2539H88.5173V18.5273C88.5173 17.9414 88.365 17.4727 88.0603 17.1211C87.7634 16.7695 87.2908 16.5938 86.6423 16.5938C86.072 16.5938 85.6228 16.7305 85.2947 17.0039C84.9744 17.2773 84.8142 17.6523 84.8142 18.1289H81.4275C81.4275 17.3945 81.6541 16.7148 82.1072 16.0898C82.5603 15.4648 83.2009 14.9766 84.0291 14.625C84.8572 14.2656 85.7869 14.0859 86.8181 14.0859C88.3806 14.0859 89.6189 14.4805 90.533 15.2695C91.4548 16.0508 91.9158 17.1523 91.9158 18.5742V24.0703C91.9236 25.2734 92.0916 26.1836 92.4197 26.8008V27H88.9978ZM86.197 24.6445C86.697 24.6445 87.158 24.5352 87.5798 24.3164C88.0017 24.0898 88.3142 23.7891 88.5173 23.4141V21.2344H87.2517C85.5564 21.2344 84.6541 21.8203 84.5447 22.9922L84.533 23.1914C84.533 23.6133 84.6814 23.9609 84.9783 24.2344C85.2752 24.5078 85.6814 24.6445 86.197 24.6445ZM98.9545 14.3203L99.06 15.7852C99.9662 14.6523 101.181 14.0859 102.705 14.0859C104.048 14.0859 105.048 14.4805 105.705 15.2695C106.361 16.0586 106.697 17.2383 106.712 18.8086V27H103.326V18.8906C103.326 18.1719 103.169 17.6523 102.857 17.332C102.544 17.0039 102.025 16.8398 101.298 16.8398C100.345 16.8398 99.6303 17.2461 99.1537 18.0586V27H95.767V14.3203H98.9545ZM7.83984 42.7539H5.03906V49H1.52344V31.9375H7.86328C9.87891 31.9375 11.4336 32.3867 12.5273 33.2852C13.6211 34.1836 14.168 35.4531 14.168 37.0938C14.168 38.2578 13.9141 39.2305 13.4062 40.0117C12.9062 40.7852 12.1445 41.4023 11.1211 41.8633L14.8125 48.8359V49H11.0391L7.83984 42.7539ZM5.03906 39.9062H7.875C8.75781 39.9062 9.44141 39.6836 9.92578 39.2383C10.4102 38.7852 10.6523 38.1641 10.6523 37.375C10.6523 36.5703 10.4219 35.9375 9.96094 35.4766C9.50781 35.0156 8.80859 34.7852 7.86328 34.7852H5.03906V39.9062ZM27.0966 49C26.9403 48.6953 26.827 48.3164 26.7567 47.8633C25.9364 48.7773 24.87 49.2344 23.5575 49.2344C22.3153 49.2344 21.2841 48.875 20.4637 48.1562C19.6512 47.4375 19.245 46.5312 19.245 45.4375C19.245 44.0938 19.7411 43.0625 20.7333 42.3438C21.7333 41.625 23.1747 41.2617 25.0575 41.2539H26.6161V40.5273C26.6161 39.9414 26.4637 39.4727 26.1591 39.1211C25.8622 38.7695 25.3895 38.5938 24.7411 38.5938C24.1708 38.5938 23.7216 38.7305 23.3934 39.0039C23.0731 39.2773 22.913 39.6523 22.913 40.1289H19.5262C19.5262 39.3945 19.7528 38.7148 20.2059 38.0898C20.6591 37.4648 21.2997 36.9766 22.1278 36.625C22.9559 36.2656 23.8856 36.0859 24.9169 36.0859C26.4794 36.0859 27.7177 36.4805 28.6317 37.2695C29.5536 38.0508 30.0145 39.1523 30.0145 40.5742V46.0703C30.0223 47.2734 30.1903 48.1836 30.5184 48.8008V49H27.0966ZM24.2958 46.6445C24.7958 46.6445 25.2567 46.5352 25.6786 46.3164C26.1005 46.0898 26.413 45.7891 26.6161 45.4141V43.2344H25.3505C23.6552 43.2344 22.7528 43.8203 22.6434 44.9922L22.6317 45.1914C22.6317 45.6133 22.7802 45.9609 23.077 46.2344C23.3739 46.5078 23.7802 46.6445 24.2958 46.6445ZM38.9119 36.3203L39.0173 37.7383C39.9158 36.6367 41.1306 36.0859 42.6619 36.0859C44.2947 36.0859 45.4158 36.7305 46.0252 38.0195C46.9158 36.7305 48.1853 36.0859 49.8337 36.0859C51.2087 36.0859 52.2322 36.4883 52.9041 37.293C53.5759 38.0898 53.9119 39.293 53.9119 40.9023V49H50.5134V40.9141C50.5134 40.1953 50.3728 39.6719 50.0916 39.3438C49.8103 39.0078 49.3142 38.8398 48.6033 38.8398C47.5877 38.8398 46.8845 39.3242 46.4939 40.293L46.5056 49H43.1189V40.9258C43.1189 40.1914 42.9744 39.6602 42.6853 39.332C42.3962 39.0039 41.9041 38.8398 41.2087 38.8398C40.2478 38.8398 39.5525 39.2383 39.1228 40.0352V49H35.7361V36.3203H38.9119ZM63.2194 49H59.8209V36.3203H63.2194V49ZM59.6217 33.0391C59.6217 32.5312 59.7897 32.1133 60.1256 31.7852C60.4694 31.457 60.9342 31.293 61.5202 31.293C62.0983 31.293 62.5592 31.457 62.903 31.7852C63.2467 32.1133 63.4186 32.5312 63.4186 33.0391C63.4186 33.5547 63.2428 33.9766 62.8913 34.3047C62.5475 34.6328 62.0905 34.7969 61.5202 34.7969C60.9498 34.7969 60.4889 34.6328 60.1373 34.3047C59.7936 33.9766 59.6217 33.5547 59.6217 33.0391ZM76.2652 39.4961C75.8042 39.4336 75.398 39.4023 75.0464 39.4023C73.7652 39.4023 72.9253 39.8359 72.5269 40.7031V49H69.1402V36.3203H72.3394L72.4331 37.832C73.1128 36.668 74.0542 36.0859 75.2573 36.0859C75.6323 36.0859 75.9839 36.1367 76.312 36.2383L76.2652 39.4961ZM86.6273 49.2344C84.768 49.2344 83.2523 48.6641 82.0805 47.5234C80.9164 46.3828 80.3344 44.8633 80.3344 42.9648V42.6367C80.3344 41.3633 80.5805 40.2266 81.0727 39.2266C81.5648 38.2188 82.2602 37.4453 83.1586 36.9062C84.0648 36.3594 85.0961 36.0859 86.2523 36.0859C87.9867 36.0859 89.35 36.6328 90.3422 37.7266C91.3422 38.8203 91.8422 40.3711 91.8422 42.3789V43.7617H83.768C83.8773 44.5898 84.2055 45.2539 84.7523 45.7539C85.307 46.2539 86.0062 46.5039 86.85 46.5039C88.1547 46.5039 89.1742 46.0312 89.9086 45.0859L91.5727 46.9492C91.0648 47.668 90.3773 48.2305 89.5102 48.6367C88.643 49.0352 87.682 49.2344 86.6273 49.2344ZM86.2406 38.8281C85.5687 38.8281 85.0219 39.0547 84.6 39.5078C84.1859 39.9609 83.9203 40.6094 83.8031 41.4531H88.5141V41.1836C88.4984 40.4336 88.2953 39.8555 87.9047 39.4492C87.5141 39.0352 86.9594 38.8281 86.2406 38.8281ZM100.786 46.2695H106.986V49H96.4622V46.9375L102.427 39.0625H96.638V36.3203H106.798V38.3242L100.786 46.2695Z" fill="#FFC700"/>
<path d="M5.03906 65.9883V72H1.52344V54.9375H8.17969C9.46094 54.9375 10.5859 55.1719 11.5547 55.6406C12.5312 56.1094 13.2812 56.7773 13.8047 57.6445C14.3281 58.5039 14.5898 59.4844 14.5898 60.5859C14.5898 62.2578 14.0156 63.5781 12.8672 64.5469C11.7266 65.5078 10.1445 65.9883 8.12109 65.9883H5.03906ZM5.03906 63.1406H8.17969C9.10938 63.1406 9.81641 62.9219 10.3008 62.4844C10.793 62.0469 11.0391 61.4219 11.0391 60.6094C11.0391 59.7734 10.793 59.0977 10.3008 58.582C9.80859 58.0664 9.12891 57.8008 8.26172 57.7852H5.03906V63.1406ZM16.1016 65.543C16.1016 64.2852 16.3438 63.1641 16.8281 62.1797C17.3125 61.1953 18.0078 60.4336 18.9141 59.8945C19.8281 59.3555 20.8867 59.0859 22.0898 59.0859C23.8008 59.0859 25.1953 59.6094 26.2734 60.6562C27.3594 61.7031 27.9648 63.125 28.0898 64.9219L28.1133 65.7891C28.1133 67.7344 27.5703 69.2969 26.4844 70.4766C25.3984 71.6484 23.9414 72.2344 22.1133 72.2344C20.2852 72.2344 18.8242 71.6484 17.7305 70.4766C16.6445 69.3047 16.1016 67.7109 16.1016 65.6953V65.543ZM19.4883 65.7891C19.4883 66.9922 19.7148 67.9141 20.168 68.5547C20.6211 69.1875 21.2695 69.5039 22.1133 69.5039C22.9336 69.5039 23.5742 69.1914 24.0352 68.5664C24.4961 67.9336 24.7266 66.9258 24.7266 65.543C24.7266 64.3633 24.4961 63.4492 24.0352 62.8008C23.5742 62.1523 22.9258 61.8281 22.0898 61.8281C21.2617 61.8281 20.6211 62.1523 20.168 62.8008C19.7148 63.4414 19.4883 64.4375 19.4883 65.7891ZM37.3242 62.4961C36.8633 62.4336 36.457 62.4023 36.1055 62.4023C34.8242 62.4023 33.9844 62.8359 33.5859 63.7031V72H30.1992V59.3203H33.3984L33.4922 60.832C34.1719 59.668 35.1133 59.0859 36.3164 59.0859C36.6914 59.0859 37.043 59.1367 37.3711 59.2383L37.3242 62.4961ZM43.6055 56.2031V59.3203H45.7734V61.8047H43.6055V68.1328C43.6055 68.6016 43.6953 68.9375 43.875 69.1406C44.0547 69.3438 44.3984 69.4453 44.9062 69.4453C45.2812 69.4453 45.6133 69.418 45.9023 69.3633V71.9297C45.2383 72.1328 44.5547 72.2344 43.8516 72.2344C41.4766 72.2344 40.2656 71.0352 40.2188 68.6367V61.8047H38.3672V59.3203H40.2188V56.2031H43.6055ZM55.0078 72C54.8516 71.6953 54.7383 71.3164 54.668 70.8633C53.8477 71.7773 52.7812 72.2344 51.4688 72.2344C50.2266 72.2344 49.1953 71.875 48.375 71.1562C47.5625 70.4375 47.1562 69.5312 47.1562 68.4375C47.1562 67.0938 47.6523 66.0625 48.6445 65.3438C49.6445 64.625 51.0859 64.2617 52.9688 64.2539H54.5273V63.5273C54.5273 62.9414 54.375 62.4727 54.0703 62.1211C53.7734 61.7695 53.3008 61.5938 52.6523 61.5938C52.082 61.5938 51.6328 61.7305 51.3047 62.0039C50.9844 62.2773 50.8242 62.6523 50.8242 63.1289H47.4375C47.4375 62.3945 47.6641 61.7148 48.1172 61.0898C48.5703 60.4648 49.2109 59.9766 50.0391 59.625C50.8672 59.2656 51.7969 59.0859 52.8281 59.0859C54.3906 59.0859 55.6289 59.4805 56.543 60.2695C57.4648 61.0508 57.9258 62.1523 57.9258 63.5742V69.0703C57.9336 70.2734 58.1016 71.1836 58.4297 71.8008V72H55.0078ZM52.207 69.6445C52.707 69.6445 53.168 69.5352 53.5898 69.3164C54.0117 69.0898 54.3242 68.7891 54.5273 68.4141V66.2344H53.2617C51.5664 66.2344 50.6641 66.8203 50.5547 67.9922L50.543 68.1914C50.543 68.6133 50.6914 68.9609 50.9883 69.2344C51.2852 69.5078 51.6914 69.6445 52.207 69.6445ZM61.4531 72V61.8047H59.5664V59.3203H61.4531V58.2422C61.4531 56.8203 61.8594 55.7188 62.6719 54.9375C63.4922 54.1484 64.6367 53.7539 66.1055 53.7539C66.5742 53.7539 67.1484 53.832 67.8281 53.9883L67.793 56.6133C67.5117 56.543 67.168 56.5078 66.7617 56.5078C65.4883 56.5078 64.8516 57.1055 64.8516 58.3008V59.3203H67.3711V61.8047H64.8516V72H61.4531ZM68.6016 65.543C68.6016 64.2852 68.8438 63.1641 69.3281 62.1797C69.8125 61.1953 70.5078 60.4336 71.4141 59.8945C72.3281 59.3555 73.3867 59.0859 74.5898 59.0859C76.3008 59.0859 77.6953 59.6094 78.7734 60.6562C79.8594 61.7031 80.4648 63.125 80.5898 64.9219L80.6133 65.7891C80.6133 67.7344 80.0703 69.2969 78.9844 70.4766C77.8984 71.6484 76.4414 72.2344 74.6133 72.2344C72.7852 72.2344 71.3242 71.6484 70.2305 70.4766C69.1445 69.3047 68.6016 67.7109 68.6016 65.6953V65.543ZM71.9883 65.7891C71.9883 66.9922 72.2148 67.9141 72.668 68.5547C73.1211 69.1875 73.7695 69.5039 74.6133 69.5039C75.4336 69.5039 76.0742 69.1914 76.5352 68.5664C76.9961 67.9336 77.2266 66.9258 77.2266 65.543C77.2266 64.3633 76.9961 63.4492 76.5352 62.8008C76.0742 62.1523 75.4258 61.8281 74.5898 61.8281C73.7617 61.8281 73.1211 62.1523 72.668 62.8008C72.2148 63.4414 71.9883 64.4375 71.9883 65.7891ZM86.2734 72H82.875V54H86.2734V72ZM92.6484 72H89.25V59.3203H92.6484V72ZM89.0508 56.0391C89.0508 55.5312 89.2188 55.1133 89.5547 54.7852C89.8984 54.457 90.3633 54.293 90.9492 54.293C91.5273 54.293 91.9883 54.457 92.332 54.7852C92.6758 55.1133 92.8477 55.5312 92.8477 56.0391C92.8477 56.5547 92.6719 56.9766 92.3203 57.3047C91.9766 57.6328 91.5195 57.7969 90.9492 57.7969C90.3789 57.7969 89.918 57.6328 89.5664 57.3047C89.2227 56.9766 89.0508 56.5547 89.0508 56.0391ZM94.9219 65.543C94.9219 64.2852 95.1641 63.1641 95.6484 62.1797C96.1328 61.1953 96.8281 60.4336 97.7344 59.8945C98.6484 59.3555 99.707 59.0859 100.91 59.0859C102.621 59.0859 104.016 59.6094 105.094 60.6562C106.18 61.7031 106.785 63.125 106.91 64.9219L106.934 65.7891C106.934 67.7344 106.391 69.2969 105.305 70.4766C104.219 71.6484 102.762 72.2344 100.934 72.2344C99.1055 72.2344 97.6445 71.6484 96.5508 70.4766C95.4648 69.3047 94.9219 67.7109 94.9219 65.6953V65.543ZM98.3086 65.7891C98.3086 66.9922 98.5352 67.9141 98.9883 68.5547C99.4414 69.1875 100.09 69.5039 100.934 69.5039C101.754 69.5039 102.395 69.1914 102.855 68.5664C103.316 67.9336 103.547 66.9258 103.547 65.543C103.547 64.3633 103.316 63.4492 102.855 62.8008C102.395 62.1523 101.746 61.8281 100.91 61.8281C100.082 61.8281 99.4414 62.1523 98.9883 62.8008C98.5352 63.4414 98.3086 64.4375 98.3086 65.7891Z" fill="#912B5C"/>
</svg>
